HIERARCHY
ROOT Hips
{
  OFFSET 13.6774 106.653 -34.4427
  CHANNELS 6 Xposition Yposition Zposition Zrotation Xrotation Yrotation
  JOINT ToSpine
  {
    OFFSET -2.69724 7.43032 -0.144315
    CHANNELS 3 Zrotation Xrotation Yrotation
    JOINT Spine
    {
      OFFSET -0.0310711 10.7595 1.96963
      CHANNELS 3 Zrotation Xrotation Yrotation
      JOINT Spine1
      {
        OFFSET 19.9056 3.91189 0.764692
        CHANNELS 3 Zrotation Xrotation Yrotation
        JOINT Neck
        {
          OFFSET 25.9749 7.03908 -0.130764
          CHANNELS 3 Zrotation Xrotation Yrotation
          JOINT Head
          {
            OFFSET 9.52751 0.295786 -0.907742
            CHANNELS 3 Zrotation Xrotation Yrotation
            End Site
            {
              OFFSET 16.4037 0.713936 2.7358
            }
          }
        }
        JOINT LeftShoulder
        {
          OFFSET 17.7449 4.33886 11.7777
          CHANNELS 3 Zrotation Xrotation Yrotation
          JOINT LeftArm
          {
            OFFSET 0.911315 1.27913 9.80584
            CHANNELS 3 Zrotation Xrotation Yrotation
            JOINT LeftForeArm
            {
              OFFSET 28.6126 1.18197 -3.53199
              CHANNELS 3 Zrotation Xrotation Yrotation
              JOINT LeftHand
              {
                OFFSET 27.5088 0.0218783 0.327423
                CHANNELS 3 Zrotation Xrotation Yrotation
                End Site
                {
                  OFFSET 18.6038 -0.000155887 0.382096
                }
              }
            }
          }
        }
        JOINT RightShoulder
        {
          OFFSET 17.1009 2.89543 -12.2328
          CHANNELS 3 Zrotation Xrotation Yrotation
          JOINT RightArm
          {
            OFFSET 1.4228 0.178766 -10.211
            CHANNELS 3 Zrotation Xrotation Yrotation
            JOINT RightForeArm
            {
              OFFSET 28.733 1.87905 2.64907
              CHANNELS 3 Zrotation Xrotation Yrotation
              JOINT RightHand
              {
                OFFSET 27.4588 0.290562 -0.101845
                CHANNELS 3 Zrotation Xrotation Yrotation
                End Site
                {
                  OFFSET 17.8396 -0.255518 -0.000602873
                }
              }
            }
          }
        }
      }
    }
  }
  JOINT LeftUpLeg
  {
    OFFSET -5.61296 -2.22332 -10.2353
    CHANNELS 3 Zrotation Xrotation Yrotation
    JOINT LeftLeg
    {
      OFFSET 2.56703 -44.7417 -7.93097
      CHANNELS 3 Zrotation Xrotation Yrotation
      JOINT LeftFoot
      {
        OFFSET 3.16933 -46.5642 -3.96578
        CHANNELS 3 Zrotation Xrotation Yrotation
        JOINT LeftToeBase
        {
          OFFSET 0.346054 -6.02161 12.8035
          CHANNELS 3 Zrotation Xrotation Yrotation
          End Site
          {
            OFFSET 0.134235 -1.35082 5.13018
          }
        }
      }
    }
  }
  JOINT RightUpLeg
  {
    OFFSET -5.7928 -1.72406 10.6446
    CHANNELS 3 Zrotation Xrotation Yrotation
    JOINT RightLeg
    {
      OFFSET -2.57161 -44.7178 -7.85259
      CHANNELS 3 Zrotation Xrotation Yrotation
      JOINT RightFoot
      {
        OFFSET -3.10148 -46.5936 -4.03391
        CHANNELS 3 Zrotation Xrotation Yrotation
        JOINT RightToeBase
        {
          OFFSET -0.0828122 -6.13587 12.8035
          CHANNELS 3 Zrotation Xrotation Yrotation
          End Site
          {
            OFFSET -0.131328 -1.35082 5.13018
          }
        }
      }
    }
  }
}
MOTION
Frames: 8
Frame Time: 0.03333333333333333
0.0000 93.1000 0.0000 -68.1996 43.7958 169.3344 -71.1379 -0.6648 87.5758 140.6267 56.5144 -60.9826 12.7734 22.1378 -11.1855 -137.3886 13.0203 160.2915 -139.8018 50.1229 169.7044 0.1827 -0.2095 -6.9418 -115.2693 26.8326 -49.7284 -10.0119 59.1596 14.2177 5.8930 -0.4473 3.9339 -1.4494 0.1870 -5.2921 -87.4405 -13.2821 68.7525 -4.0590 -11.6010 4.6112 -3.7977 -0.1092 -4.7521 -13.2851 17.9230 91.6732 -2.4549 37.5278 -10.3116 -1.8753 7.7533 0.5773 0.9521 22.9423 9.1723 -20.9688 -18.0260 77.9485 140.7931 82.8881 -134.9139 -6.1975 1.9731 -0.7016 -6.1044 41.2719 -8.9730 
0.0000 93.1000 0.0000 -68.7560 46.1092 167.5956 -71.2004 -0.0912 87.5681 141.6504 54.2897 -62.6645 15.2975 22.7180 -13.7197 -138.3499 12.7654 163.0385 -139.8885 49.7836 169.4306 0.7678 -0.2354 -8.7567 -117.2043 32.7031 -45.7467 -13.5086 63.5145 17.3451 6.9222 -0.7479 3.8658 -0.9751 1.3069 -2.8720 -82.9107 -19.6459 64.0461 -5.1607 -15.6345 4.9511 -3.9362 0.1892 -4.5673 -17.2827 18.3170 94.9287 -2.9963 30.2191 -3.6606 -0.2118 7.2945 0.1039 2.2067 21.8942 4.3428 -14.8711 -20.8031 73.6852 60.9161 84.2580 -51.8226 -6.2733 -0.4598 0.1623 -5.9897 33.5538 -5.9779 
0.0000 93.1000 0.0000 -69.9503 48.2774 168.7789 -71.2337 0.7636 87.3025 141.7511 54.3791 -62.7430 17.1189 23.0701 -14.7839 -138.6190 12.3942 165.2232 -139.7971 49.2627 169.7755 1.4176 0.1056 -10.9809 -114.7477 34.0724 -40.6540 -14.3570 58.0570 14.3721 6.9413 -0.6917 3.2762 0.0640 2.1306 -2.3246 -82.5830 -24.1802 57.9814 -5.2992 -19.9320 4.6827 -2.7118 0.2258 -4.0209 -20.4591 18.8904 95.8065 -4.4589 28.0362 0.3703 -1.3821 8.1272 -0.4177 2.8283 23.8541 4.8398 -11.8322 -20.3872 69.9654 15.0427 76.4115 -3.7855 -5.9934 -2.6125 1.1614 -7.3506 30.7966 -6.5006 
0.0000 93.1000 0.0000 -70.9950 49.7503 169.8242 -71.0888 0.2496 87.4614 142.1060 55.5788 -60.6466 19.3918 22.0920 -14.8054 -140.5134 12.8100 167.0334 -141.6952 49.8739 171.8353 1.0862 -0.6614 -11.8417 -113.0090 35.8486 -35.7358 -13.0776 51.5813 11.4245 6.9409 -0.3479 3.4094 -0.1619 1.5766 -0.4978 -84.0610 -26.4487 50.5349 -4.3623 -19.4315 5.1255 -2.1594 -0.0327 -3.9399 -23.1575 19.2964 96.6769 -5.3778 31.1028 -3.3945 -3.4331 8.3465 0.1552 3.1735 25.0408 4.5310 -11.9739 -18.2555 63.9403 5.8885 63.7378 7.4714 -6.0395 -4.3753 0.8254 -8.7179 27.5578 -1.8998 
0.0000 93.1000 0.0000 -73.9738 49.8343 174.0596 -71.2256 0.0153 87.6462 141.0975 56.5456 -59.1204 21.2834 20.7772 -13.0848 -138.4882 13.0633 167.8283 -140.2993 49.8434 171.6156 0.7510 -0.9992 -13.7858 -112.1056 34.9064 -34.6741 -11.8810 42.7631 10.2828 8.7841 0.1282 4.1789 -0.2093 0.0304 1.1123 -85.2967 -27.6359 41.4939 -4.5701 -17.4336 4.5973 -1.7915 -0.4019 -3.4269 -25.9005 18.2718 100.7971 -2.6513 37.7946 -12.7776 -2.9470 11.1676 0.3095 4.5867 23.6455 2.7231 -15.7637 -15.8836 58.5718 3.1407 49.4320 10.6473 -3.2409 -2.7832 -0.1476 -11.5372 25.8105 7.2436 
0.0000 93.1000 0.0000 -77.7973 48.7215 177.6843 -71.1355 -0.2478 87.7431 139.1118 57.5966 -54.8653 23.6279 19.0869 -11.4938 -137.6233 12.1913 169.1097 -140.1934 48.8180 173.7096 0.6354 -0.7088 -16.9903 -114.1493 34.7205 -36.6232 -9.4891 34.0662 9.1289 11.7714 0.7398 6.1553 -0.1627 -2.3966 5.3486 -91.8268 -27.9010 33.5141 -4.5855 -13.9454 3.7630 -1.0251 -1.1021 -3.0082 -30.3484 15.8695 97.8868 -3.5319 48.9104 -12.2097 -2.4052 11.3209 0.1260 1.7085 21.3682 4.1154 -18.9629 -13.2349 58.9458 1.7388 39.2508 8.6913 -1.3711 2.0608 -1.0165 -16.1103 23.7693 11.8654 
0.0000 93.1000 0.0000 -83.1726 46.5657 -178.6577 -71.2517 0.4215 87.4017 135.1899 58.0674 -52.5075 25.5364 17.0794 -12.4489 -137.6075 11.8532 170.2326 -139.2294 48.3340 172.0117 1.4519 0.6549 -26.3020 -113.1432 34.3762 -47.5596 -7.9949 30.1611 8.5982 14.5156 0.9555 4.6878 1.4174 -5.0634 12.4928 -99.1202 -27.8265 27.8841 -1.3420 -8.5723 0.9387 0.1728 -2.1083 -2.8841 -36.2709 11.2243 94.9902 -6.5956 61.9854 -12.4054 5.7993 14.4650 -2.4148 -7.5959 -26.3694 10.6490 -19.3944 -13.0683 61.2862 1.8567 39.6182 6.5010 -0.4246 6.4564 0.2424 -15.3981 21.9183 12.9699 
0.0000 93.1000 0.0000 -83.7181 42.8633 178.4116 -71.0797 0.5187 88.0365 129.1142 58.3965 -47.9883 26.5703 16.2584 -12.6581 -138.8490 12.7338 171.4725 -139.8878 48.7969 175.1688 2.4425 1.1083 -31.4398 -110.1042 35.1236 -67.4462 -7.8535 27.5261 7.9758 12.1208 0.1745 3.5950 1.1612 -6.4518 21.1555 -106.1848 -32.1494 26.3895 -0.0254 0.5697 1.0801 -1.6844 -0.8028 -2.4546 -38.4061 3.8743 89.9477 -12.8430 74.2249 -0.6518 12.2527 12.7732 -2.8195 -14.9530 -51.2631 2.5766 -15.5999 -17.3098 64.8626 1.6295 49.3657 2.4243 0.2033 6.5313 -0.0701 -18.7791 20.8084 19.7854 
